<svg width="18" height="18" viewBox="0 0 18 18" fill="none" xmlns="http://www.w3.org/2000/svg">
<path d="M11.25 2.8125V5.88881L9.5625 6.89062V5.18569L8.71875 5.71275L6.75 6.89062V5.18569L5.90625 5.71275L3.09375 7.40025L2.8125 7.55831V15.1875H15.1875V2.8125H11.25ZM12.375 3.9375H14.0625V14.0625H3.9375V8.17369L5.625 7.17188V8.87681L6.46875 8.34975L8.4375 7.17188V8.87681L9.28125 8.34975L12.0938 6.66225L12.375 6.50419V3.9375ZM5.0625 9.5625V10.6875H6.1875V9.5625H5.0625ZM7.3125 9.5625V10.6875H8.4375V9.5625H7.3125ZM9.5625 9.5625V10.6875H10.6875V9.5625H9.5625ZM11.8125 9.5625V10.6875H12.9375V9.5625H11.8125ZM5.0625 11.8125V12.9375H6.1875V11.8125H5.0625ZM7.3125 11.8125V12.9375H8.4375V11.8125H7.3125ZM9.5625 11.8125V12.9375H10.6875V11.8125H9.5625ZM11.8125 11.8125V12.9375H12.9375V11.8125H11.8125Z" fill="#27B46E"/>
</svg>
