<svg width="12" height="11" viewBox="0 0 12 11" fill="none" xmlns="http://www.w3.org/2000/svg">
<path fill-rule="evenodd" clip-rule="evenodd" d="M5.6406 3.33622L5.66578 3.75145L5.2461 3.7006C3.71843 3.5057 2.38383 2.84473 1.25067 1.73463L0.696681 1.18382L0.553988 1.59057C0.251813 2.49729 0.444869 3.45486 1.0744 4.09888C1.41015 4.45479 1.33461 4.50564 0.755438 4.29379C0.553988 4.22599 0.377719 4.17515 0.360931 4.20057C0.302175 4.25989 0.503625 5.03103 0.663106 5.33609C0.881344 5.75979 1.32621 6.17502 1.81305 6.42076L2.22434 6.61567L1.73751 6.62414C1.26746 6.62414 1.25067 6.63262 1.30103 6.81057C1.46891 7.36138 2.13201 7.94609 2.87066 8.20031L3.39108 8.37826L2.93781 8.64943C2.26631 9.03924 1.4773 9.25956 0.688288 9.27651C0.310569 9.28498 0 9.31888 0 9.3443C0 9.42904 1.02404 9.90359 1.61999 10.09C3.40786 10.6408 5.53148 10.4036 7.1263 9.46294C8.25945 8.79349 9.39261 7.46307 9.92142 6.17502C10.2068 5.48862 10.4922 4.23447 10.4922 3.63281C10.4922 3.24301 10.5174 3.19216 10.9874 2.72609C11.2644 2.45492 11.5246 2.15833 11.575 2.07359C11.6589 1.91259 11.6505 1.91259 11.2224 2.05664C10.509 2.31086 10.4083 2.27697 10.7608 1.89564C11.021 1.62447 11.3316 1.13298 11.3316 0.988917C11.3316 0.963495 11.2057 1.00586 11.063 1.08213C10.9119 1.16687 10.5761 1.29398 10.3243 1.37025L9.87105 1.51431L9.45976 1.23466C9.23313 1.08213 8.91417 0.912651 8.74629 0.861807C8.31821 0.74317 7.6635 0.760118 7.27738 0.895703C6.22816 1.27703 5.56506 2.26002 5.6406 3.33622Z" fill="white"/>
</svg>
