<svg width="16" height="116" viewBox="0 0 16 116" fill="none" xmlns="http://www.w3.org/2000/svg">
<g clip-path="url(#clip0)">
<path opacity="0.4" fill-rule="evenodd" clip-rule="evenodd" d="M8.00002 116C7.766 116 7.57629 115.81 7.57629 115.576L7.57629 66.4237C7.57629 66.1897 7.766 66 8.00002 66C8.23404 66 8.42375 66.1897 8.42375 66.4237L8.42375 115.576C8.42375 115.81 8.23404 116 8.00002 116Z" fill="#27B46E"/>
<path fill-rule="evenodd" clip-rule="evenodd" d="M3.52864 60.4712C3.78899 60.7316 4.2111 60.7316 4.47145 60.4712L8.00004 56.9426L11.5286 60.4712C11.789 60.7316 12.2111 60.7316 12.4714 60.4712C12.7318 60.2109 12.7318 59.7888 12.4714 59.5284L8.47144 55.5284C8.2111 55.2681 7.78899 55.2681 7.52864 55.5284L3.52864 59.5284C3.26829 59.7888 3.26829 60.2109 3.52864 60.4712Z" fill="#27B46E"/>
<path opacity="0.4" fill-rule="evenodd" clip-rule="evenodd" d="M8.00002 50C7.766 50 7.57629 49.8103 7.57629 49.5763L7.57629 0.423729C7.57629 0.189709 7.766 0 8.00002 0C8.23404 0 8.42375 0.189709 8.42375 0.423729L8.42375 49.5763C8.42375 49.8103 8.23404 50 8.00002 50Z" fill="#27B46E"/>
</g>
<defs>
<clipPath id="clip0">
<rect width="116" height="16" fill="white" transform="translate(0 116) rotate(-90)"/>
</clipPath>
</defs>
</svg>
