<svg width="18" height="18" viewBox="0 0 18 18" fill="none" xmlns="http://www.w3.org/2000/svg">
<path d="M9 8.5C9.69223 8.5 10.3689 8.29473 10.9445 7.91015C11.5201 7.52556 11.9687 6.97894 12.2336 6.33939C12.4985 5.69985 12.5678 4.99612 12.4327 4.31719C12.2977 3.63825 11.9644 3.01461 11.4749 2.52513C10.9854 2.03564 10.3618 1.7023 9.68282 1.56725C9.00388 1.4322 8.30015 1.50152 7.66061 1.76642C7.02107 2.03133 6.47444 2.47993 6.08986 3.05551C5.70527 3.63108 5.5 4.30777 5.5 5C5.5 5.92826 5.86875 6.8185 6.52513 7.47487C7.1815 8.13125 8.07174 8.5 9 8.5ZM9 2.5C9.49445 2.5 9.9778 2.64662 10.3889 2.92133C10.8 3.19603 11.1205 3.58648 11.3097 4.04329C11.4989 4.50011 11.5484 5.00277 11.452 5.48773C11.3555 5.97268 11.1174 6.41814 10.7678 6.76777C10.4181 7.1174 9.97268 7.3555 9.48773 7.45196C9.00277 7.54843 8.50011 7.49892 8.04329 7.3097C7.58648 7.12048 7.19603 6.80005 6.92133 6.38893C6.64662 5.9778 6.5 5.49445 6.5 5C6.5 4.33696 6.76339 3.70108 7.23223 3.23223C7.70107 2.76339 8.33696 2.5 9 2.5Z" fill="#27B46E"/>
<path d="M15.235 12.1849C14.4332 11.3374 13.4669 10.6624 12.3953 10.201C11.3237 9.73966 10.1692 9.50171 9.0025 9.50171C7.83579 9.50171 6.68135 9.73966 5.60973 10.201C4.53811 10.6624 3.57185 11.3374 2.77 12.1849C2.59616 12.3706 2.49961 12.6155 2.5 12.8699V15.4999C2.5 15.7651 2.60536 16.0195 2.79289 16.207C2.98043 16.3945 3.23478 16.4999 3.5 16.4999H14.5C14.7652 16.4999 15.0196 16.3945 15.2071 16.207C15.3946 16.0195 15.5 15.7651 15.5 15.4999V12.8699C15.5018 12.6162 15.407 12.3714 15.235 12.1849ZM14.5 15.4999H3.5V12.8649C4.20862 12.1187 5.06165 11.5246 6.00718 11.1185C6.95271 10.7125 7.97098 10.5031 9 10.5031C10.029 10.5031 11.0473 10.7125 11.9928 11.1185C12.9384 11.5246 13.7914 12.1187 14.5 12.8649V15.4999Z" fill="#27B46E"/>
</svg>
