<svg width="18" height="18" viewBox="0 0 18 18" fill="none" xmlns="http://www.w3.org/2000/svg">
<path d="M9 1.5C6.93225 1.5 5.25 3.18225 5.25 5.25V6.75H4.5C3.67275 6.75 3 7.42275 3 8.25V15C3 15.8273 3.67275 16.5 4.5 16.5H13.5C14.3273 16.5 15 15.8273 15 15V8.25C15 7.42275 14.3273 6.75 13.5 6.75H12.75V5.25C12.75 3.18225 11.0677 1.5 9 1.5ZM6.75 5.25C6.75 4.0095 7.7595 3 9 3C10.2405 3 11.25 4.0095 11.25 5.25V6.75H6.75V5.25ZM13.5015 15H9.75V13.2915C10.1962 13.0312 10.5 12.5527 10.5 12C10.5 11.1727 9.82725 10.5 9 10.5C8.17275 10.5 7.5 11.1727 7.5 12C7.5 12.552 7.80375 13.0312 8.25 13.2915V15H4.5V8.25H13.5L13.5015 15Z" fill="#27B46E"/>
</svg>
