<svg width="18" height="18" viewBox="0 0 18 18" fill="none" xmlns="http://www.w3.org/2000/svg">
<path d="M9 8.5C9.69223 8.5 10.3689 8.29473 10.9445 7.91015C11.5201 7.52556 11.9687 6.97894 12.2336 6.33939C12.4985 5.69985 12.5678 4.99612 12.4327 4.31719C12.2977 3.63825 11.9644 3.01461 11.4749 2.52513C10.9854 2.03564 10.3618 1.7023 9.68282 1.56725C9.00388 1.4322 8.30015 1.50152 7.66061 1.76642C7.02107 2.03133 6.47444 2.47993 6.08986 3.05551C5.70527 3.63108 5.5 4.30777 5.5 5C5.5 5.92826 5.86875 6.8185 6.52513 7.47487C7.1815 8.13125 8.07174 8.5 9 8.5ZM9 2.5C9.49445 2.5 9.9778 2.64662 10.3889 2.92133C10.8 3.19603 11.1205 3.58648 11.3097 4.04329C11.4989 4.50011 11.5484 5.00277 11.452 5.48773C11.3555 5.97268 11.1174 6.41814 10.7678 6.76777C10.4181 7.1174 9.97268 7.3555 9.48773 7.45196C9.00277 7.54843 8.50011 7.49892 8.04329 7.3097C7.58648 7.12048 7.19603 6.80005 6.92133 6.38893C6.64662 5.9778 6.5 5.49445 6.5 5C6.5 4.33696 6.76339 3.70108 7.23223 3.23223C7.70107 2.76339 8.33696 2.5 9 2.5Z" fill="#FE9A22"/>
<path d="M15.235 12.1851C14.4332 11.3377 13.4669 10.6626 12.3953 10.2012C11.3237 9.7399 10.1692 9.50195 9.0025 9.50195C7.83579 9.50195 6.68135 9.7399 5.60973 10.2012C4.53811 10.6626 3.57185 11.3377 2.77 12.1851C2.59616 12.3708 2.49961 12.6158 2.5 12.8701V15.5001C2.5 15.7654 2.60536 16.0197 2.79289 16.2073C2.98043 16.3948 3.23478 16.5001 3.5 16.5001H14.5C14.7652 16.5001 15.0196 16.3948 15.2071 16.2073C15.3946 16.0197 15.5 15.7654 15.5 15.5001V12.8701C15.5018 12.6165 15.407 12.3716 15.235 12.1851ZM14.5 15.5001H3.5V12.8651C4.20862 12.119 5.06165 11.5248 6.00718 11.1188C6.95271 10.7128 7.97098 10.5034 9 10.5034C10.029 10.5034 11.0473 10.7128 11.9928 11.1188C12.9384 11.5248 13.7914 12.119 14.5 12.8651V15.5001Z" fill="#FE9A22"/>
</svg>
