<svg width="18" height="18" viewBox="0 0 18 18" fill="none" xmlns="http://www.w3.org/2000/svg">
<path d="M14.25 2.25H6C4.7595 2.25 3.75 3.2595 3.75 4.5V5.25H3C2.80109 5.25 2.61032 5.32902 2.46967 5.46967C2.32902 5.61032 2.25 5.80109 2.25 6C2.25 6.19891 2.32902 6.38968 2.46967 6.53033C2.61032 6.67098 2.80109 6.75 3 6.75H3.75V8.25H3C2.80109 8.25 2.61032 8.32902 2.46967 8.46967C2.32902 8.61032 2.25 8.80109 2.25 9C2.25 9.19891 2.32902 9.38968 2.46967 9.53033C2.61032 9.67098 2.80109 9.75 3 9.75H3.75V11.25H3C2.80109 11.25 2.61032 11.329 2.46967 11.4697C2.32902 11.6103 2.25 11.8011 2.25 12C2.25 12.1989 2.32902 12.3897 2.46967 12.5303C2.61032 12.671 2.80109 12.75 3 12.75H3.75V13.5C3.75 14.7405 4.7595 15.75 6 15.75H14.25C15.4905 15.75 16.5 14.7405 16.5 13.5V4.5C16.5 3.2595 15.4905 2.25 14.25 2.25ZM5.25 4.5C5.25 4.08675 5.58675 3.75 6 3.75V5.25H5.25V4.5ZM5.25 6.75H6V8.25H5.25V6.75ZM5.25 9.75H6V11.25H5.25V9.75ZM5.25 13.5V12.75H6V14.25C5.58675 14.25 5.25 13.9132 5.25 13.5ZM15 13.5C15 13.9132 14.6632 14.25 14.25 14.25H6.75V3.75H14.25C14.6632 3.75 15 4.08675 15 4.5V13.5Z" fill="#FE9A22"/>
<path d="M10.5 9.375C11.3284 9.375 12 8.70343 12 7.875C12 7.04657 11.3284 6.375 10.5 6.375C9.67157 6.375 9 7.04657 9 7.875C9 8.70343 9.67157 9.375 10.5 9.375Z" fill="#FE9A22"/>
<path d="M10.5 10.0171C9.3285 10.0171 8.625 10.5533 8.625 11.0888C8.625 11.3566 9.3285 11.6251 10.5 11.6251C11.5995 11.6251 12.375 11.3573 12.375 11.0888C12.375 10.5533 11.64 10.0171 10.5 10.0171Z" fill="#FE9A22"/>
</svg>
