<svg width="148" height="29" viewBox="0 0 148 29" fill="none" xmlns="http://www.w3.org/2000/svg">
<g clip-path="url(#clip0)">
<rect x="1" y="0.00390625" width="27.0345" height="28" fill="#828282"/>
<path d="M38.9972 21.0039H49.0199V18.7219H42.468L49.0071 9.55575V7.913H38.9844V10.195H45.5298L38.9972 19.3612V21.0039ZM55.5669 21.1957C57.9959 21.1957 59.6323 20.0131 60.0158 18.1914L57.4973 18.0252C57.2225 18.7731 56.5194 19.163 55.6117 19.163C54.2502 19.163 53.3873 18.2617 53.3873 16.7979V16.7915H60.0733V16.0437C60.0733 12.707 58.0534 11.0579 55.4583 11.0579C52.5691 11.0579 50.6962 13.1097 50.6962 16.1396C50.6962 19.2525 52.5435 21.1957 55.5669 21.1957ZM53.3873 15.104C53.4448 13.9854 54.2949 13.0906 55.503 13.0906C56.6855 13.0906 57.5037 13.9343 57.5101 15.104H53.3873ZM61.8503 21.0039H64.5733V15.4492C64.5797 14.2475 65.449 13.4229 66.5485 13.4229C66.9192 13.4229 67.2196 13.5252 67.4753 13.6531L68.2935 11.4031C67.9355 11.1857 67.4753 11.0451 66.9512 11.0451C65.8453 11.0451 64.9505 11.6843 64.5925 12.8988H64.4902V11.1857H61.8503V21.0039ZM73.4231 21.1957C76.4018 21.1957 78.2555 19.1566 78.2555 16.1332C78.2555 13.0906 76.4018 11.0579 73.4231 11.0579C70.4444 11.0579 68.5907 13.0906 68.5907 16.1332C68.5907 19.1566 70.4444 21.1957 73.4231 21.1957ZM73.4359 19.0863C72.0616 19.0863 71.3585 17.8271 71.3585 16.114C71.3585 14.4009 72.0616 13.1353 73.4359 13.1353C74.7846 13.1353 75.4877 14.4009 75.4877 16.114C75.4877 17.8271 74.7846 19.0863 73.4359 19.0863ZM84.2433 21.0039H87.011V15.5962H92.6296V21.0039H95.391V7.913H92.6296V13.3143H87.011V7.913H84.2433V21.0039ZM103.918 16.8235C103.924 18.1403 103.023 18.8306 102.045 18.8306C101.016 18.8306 100.351 18.1083 100.345 16.9513V11.1857H97.6218V17.4371C97.6282 19.7319 98.9705 21.1317 100.946 21.1317C102.422 21.1317 103.483 20.3711 103.924 19.2205H104.027V21.0039H106.641V11.1857H103.918V16.8235ZM111.542 15.3278C111.548 14.0621 112.303 13.3207 113.402 13.3207C114.495 13.3207 115.154 14.0366 115.147 15.2383V21.0039H117.87V14.7525C117.87 12.4641 116.528 11.0579 114.482 11.0579C113.025 11.0579 111.97 11.7738 111.529 12.918H111.414V11.1857H108.819V21.0039H111.542V15.3278ZM124.44 24.8903C127.246 24.8903 129.24 23.6119 129.24 21.0998V11.1857H126.536V12.8349H126.434C126.07 12.0359 125.271 11.0579 123.628 11.0579C121.474 11.0579 119.652 12.7326 119.652 16.0756C119.652 19.342 121.423 20.8633 123.634 20.8633C125.2 20.8633 126.076 20.0771 126.434 19.2653H126.549V21.0614C126.549 22.4102 125.686 22.9343 124.504 22.9343C123.302 22.9343 122.695 22.4102 122.471 21.8157L119.952 22.1545C120.278 23.7013 121.793 24.8903 124.44 24.8903ZM124.497 18.8178C123.161 18.8178 122.433 17.7567 122.433 16.0629C122.433 14.3945 123.148 13.2248 124.497 13.2248C125.82 13.2248 126.562 14.3434 126.562 16.0629C126.562 17.7951 125.808 18.8178 124.497 18.8178ZM135.881 21.1957C138.31 21.1957 139.947 20.0131 140.33 18.1914L137.812 18.0252C137.537 18.7731 136.834 19.163 135.926 19.163C134.565 19.163 133.702 18.2617 133.702 16.7979V16.7915H140.388V16.0437C140.388 12.707 138.368 11.0579 135.773 11.0579C132.884 11.0579 131.011 13.1097 131.011 16.1396C131.011 19.2525 132.858 21.1957 135.881 21.1957ZM133.702 15.104C133.759 13.9854 134.609 13.0906 135.817 13.0906C137 13.0906 137.818 13.9343 137.825 15.104H133.702ZM142.165 21.0039H144.888V15.4492C144.894 14.2475 145.763 13.4229 146.863 13.4229C147.234 13.4229 147.534 13.5252 147.79 13.6531L148.608 11.4031C148.25 11.1857 147.79 11.0451 147.266 11.0451C146.16 11.0451 145.265 11.6843 144.907 12.8988H144.805V11.1857H142.165V21.0039Z" fill="white"/>
</g>
<defs>
<clipPath id="clip0">
<rect width="149" height="28" fill="white" transform="translate(0 0.00390625)"/>
</clipPath>
</defs>
</svg>
