<svg width="14" height="13" viewBox="0 0 14 13" fill="none" xmlns="http://www.w3.org/2000/svg">
<path fill-rule="evenodd" clip-rule="evenodd" d="M7.00058 0.182617C5.26242 0.182617 5.04429 0.190217 4.36161 0.221284C3.68027 0.252485 3.2152 0.360352 2.80827 0.518621C2.38733 0.682089 2.03026 0.900758 1.67452 1.25663C1.31852 1.61237 1.09985 1.96944 0.935846 2.39024C0.777177 2.79731 0.669176 3.26252 0.638509 3.94359C0.607976 4.62626 0.599976 4.84453 0.599976 6.58268C0.599976 8.32083 0.607709 8.5383 0.638643 9.22098C0.669976 9.90232 0.777844 10.3674 0.935979 10.7743C1.09958 11.1953 1.31825 11.5523 1.67412 11.9081C2.02972 12.2641 2.38679 12.4833 2.80747 12.6467C3.21467 12.805 3.67987 12.9129 4.36108 12.9441C5.04376 12.9752 5.26176 12.9827 6.99978 12.9827C8.73806 12.9827 8.95553 12.9752 9.6382 12.9441C10.3195 12.9129 10.7851 12.805 11.1924 12.6467C11.6132 12.4833 11.9697 12.2641 12.3253 11.9081C12.6813 11.5523 12.9 11.1953 13.064 10.7745C13.2213 10.3674 13.3293 9.90218 13.3613 9.22111C13.392 8.53844 13.4 8.32083 13.4 6.58268C13.4 4.84453 13.392 4.6264 13.3613 3.94372C13.3293 3.26238 13.2213 2.79731 13.064 2.39037C12.9 1.96944 12.6813 1.61237 12.3253 1.25663C11.9693 0.900625 11.6133 0.681956 11.192 0.518621C10.7839 0.360352 10.3186 0.252485 9.63727 0.221284C8.9546 0.190217 8.73726 0.182617 6.99858 0.182617H7.00058ZM6.42641 1.33594C6.59681 1.33568 6.78695 1.33594 7.00055 1.33594C8.70937 1.33594 8.9119 1.34208 9.58671 1.37274C10.2107 1.40128 10.5494 1.50555 10.775 1.59315C11.0737 1.70915 11.2866 1.84782 11.5105 2.07182C11.7345 2.29582 11.8731 2.50916 11.9894 2.80783C12.077 3.03316 12.1814 3.37183 12.2098 3.99584C12.2405 4.67051 12.2471 4.87318 12.2471 6.5812C12.2471 8.28922 12.2405 8.49189 12.2098 9.16656C12.1813 9.79057 12.077 10.1292 11.9894 10.3546C11.8734 10.6532 11.7345 10.8659 11.5105 11.0898C11.2865 11.3138 11.0738 11.4524 10.775 11.5685C10.5497 11.6565 10.2107 11.7605 9.58671 11.789C8.91203 11.8197 8.70937 11.8263 7.00055 11.8263C5.2916 11.8263 5.08906 11.8197 4.41439 11.789C3.79038 11.7602 3.45171 11.6559 3.22598 11.5683C2.92731 11.4523 2.71397 11.3136 2.48997 11.0896C2.26597 10.8656 2.1273 10.6528 2.01103 10.354C1.92343 10.1287 1.81903 9.79003 1.79063 9.16603C1.75996 8.49135 1.75383 8.28868 1.75383 6.5796C1.75383 4.87051 1.75996 4.66891 1.79063 3.99424C1.81916 3.37023 1.92343 3.03156 2.01103 2.80596C2.12703 2.50729 2.26597 2.29395 2.48997 2.06995C2.71397 1.84595 2.92731 1.70728 3.22598 1.59101C3.45158 1.50301 3.79038 1.39901 4.41439 1.37034C5.00479 1.34368 5.2336 1.33568 6.42641 1.33434V1.33594ZM10.4169 2.39862C9.99285 2.39862 9.64885 2.74223 9.64885 3.16637C9.64885 3.59037 9.99285 3.93437 10.4169 3.93437C10.8409 3.93437 11.1849 3.59037 11.1849 3.16637C11.1849 2.74236 10.8409 2.39862 10.4169 2.39862ZM7.00059 3.29597C5.1855 3.29597 3.71389 4.76758 3.71389 6.58267C3.71389 8.39775 5.1855 9.8687 7.00059 9.8687C8.81567 9.8687 10.2868 8.39775 10.2868 6.58267C10.2868 4.76758 8.81567 3.29597 7.00059 3.29597ZM7.00056 4.44931C8.17871 4.44931 9.13392 5.40439 9.13392 6.58267C9.13392 7.76081 8.17871 8.71602 7.00056 8.71602C5.82228 8.71602 4.86721 7.76081 4.86721 6.58267C4.86721 5.40439 5.82228 4.44931 7.00056 4.44931Z" fill="white"/>
</svg>
