<svg width="148" height="28" viewBox="0 0 148 28" fill="none" xmlns="http://www.w3.org/2000/svg">
<g clip-path="url(#clip0)">
<rect x="1" width="27.0345" height="28" fill="#828282"/>
<path d="M38.9972 21H49.0199V18.718H42.468L49.0071 9.55185V7.90909H38.9844V10.1911H45.5298L38.9972 19.3572V21ZM55.5669 21.1918C57.9959 21.1918 59.6323 20.0092 60.0158 18.1875L57.4973 18.0213C57.2225 18.7692 56.5194 19.1591 55.6117 19.1591C54.2502 19.1591 53.3873 18.2578 53.3873 16.794V16.7876H60.0733V16.0398C60.0733 12.7031 58.0534 11.054 55.4583 11.054C52.5691 11.054 50.6962 13.1058 50.6962 16.1357C50.6962 19.2486 52.5435 21.1918 55.5669 21.1918ZM53.3873 15.1001C53.4448 13.9815 54.2949 13.0866 55.503 13.0866C56.6855 13.0866 57.5037 13.9304 57.5101 15.1001H53.3873ZM61.8503 21H64.5733V15.4453C64.5797 14.2436 65.449 13.419 66.5485 13.419C66.9192 13.419 67.2196 13.5213 67.4753 13.6491L68.2935 11.3991C67.9355 11.1818 67.4753 11.0412 66.9512 11.0412C65.8453 11.0412 64.9505 11.6804 64.5925 12.8949H64.4902V11.1818H61.8503V21ZM73.4231 21.1918C76.4018 21.1918 78.2555 19.1527 78.2555 16.1293C78.2555 13.0866 76.4018 11.054 73.4231 11.054C70.4444 11.054 68.5907 13.0866 68.5907 16.1293C68.5907 19.1527 70.4444 21.1918 73.4231 21.1918ZM73.4359 19.0824C72.0616 19.0824 71.3585 17.8232 71.3585 16.1101C71.3585 14.397 72.0616 13.1314 73.4359 13.1314C74.7846 13.1314 75.4877 14.397 75.4877 16.1101C75.4877 17.8232 74.7846 19.0824 73.4359 19.0824ZM84.2433 21H87.011V15.5923H92.6296V21H95.391V7.90909H92.6296V13.3104H87.011V7.90909H84.2433V21ZM103.918 16.8196C103.924 18.1364 103.023 18.8267 102.045 18.8267C101.016 18.8267 100.351 18.1044 100.345 16.9474V11.1818H97.6218V17.4332C97.6282 19.728 98.9705 21.1278 100.946 21.1278C102.422 21.1278 103.483 20.3672 103.924 19.2166H104.027V21H106.641V11.1818H103.918V16.8196ZM111.542 15.3239C111.548 14.0582 112.303 13.3168 113.402 13.3168C114.495 13.3168 115.154 14.0327 115.147 15.2344V21H117.87V14.7486C117.87 12.4602 116.528 11.054 114.482 11.054C113.025 11.054 111.97 11.7699 111.529 12.9141H111.414V11.1818H108.819V21H111.542V15.3239ZM124.44 24.8864C127.246 24.8864 129.24 23.608 129.24 21.0959V11.1818H126.536V12.831H126.434C126.07 12.032 125.271 11.054 123.628 11.054C121.474 11.054 119.652 12.7287 119.652 16.0717C119.652 19.3381 121.423 20.8594 123.634 20.8594C125.2 20.8594 126.076 20.0732 126.434 19.2614H126.549V21.0575C126.549 22.4062 125.686 22.9304 124.504 22.9304C123.302 22.9304 122.695 22.4062 122.471 21.8118L119.952 22.1506C120.278 23.6974 121.793 24.8864 124.44 24.8864ZM124.497 18.8139C123.161 18.8139 122.433 17.7528 122.433 16.0589C122.433 14.3906 123.148 13.2209 124.497 13.2209C125.82 13.2209 126.562 14.3395 126.562 16.0589C126.562 17.7912 125.808 18.8139 124.497 18.8139ZM135.881 21.1918C138.31 21.1918 139.947 20.0092 140.33 18.1875L137.812 18.0213C137.537 18.7692 136.834 19.1591 135.926 19.1591C134.565 19.1591 133.702 18.2578 133.702 16.794V16.7876H140.388V16.0398C140.388 12.7031 138.368 11.054 135.773 11.054C132.884 11.054 131.011 13.1058 131.011 16.1357C131.011 19.2486 132.858 21.1918 135.881 21.1918ZM133.702 15.1001C133.759 13.9815 134.609 13.0866 135.817 13.0866C137 13.0866 137.818 13.9304 137.825 15.1001H133.702ZM142.165 21H144.888V15.4453C144.894 14.2436 145.763 13.419 146.863 13.419C147.234 13.419 147.534 13.5213 147.79 13.6491L148.608 11.3991C148.25 11.1818 147.79 11.0412 147.266 11.0412C146.16 11.0412 145.265 11.6804 144.907 12.8949H144.805V11.1818H142.165V21Z" fill="black"/>
</g>
<defs>
<clipPath id="clip0">
<rect width="148" height="28" fill="white"/>
</clipPath>
</defs>
</svg>
