<svg width="14" height="13" viewBox="0 0 14 13" fill="none" xmlns="http://www.w3.org/2000/svg">
<path fill-rule="evenodd" clip-rule="evenodd" d="M13.4 6.57374C13.4 7.00656 13.3559 7.43878 13.2694 7.8601C13.185 8.2714 13.06 8.6752 12.8962 9.06122C12.7362 9.44041 12.5378 9.80582 12.3059 10.1466C12.0774 10.4852 11.8143 10.8029 11.5252 11.0925C11.2355 11.3808 10.9167 11.6432 10.5783 11.8726C10.2364 12.1029 9.87047 12.3011 9.49106 12.4618C9.10448 12.6247 8.69975 12.7495 8.2888 12.8338C7.86693 12.9205 7.43313 12.9648 6.99969 12.9648C6.56592 12.9648 6.13215 12.9205 5.71088 12.8338C5.2993 12.7495 4.89459 12.6247 4.50832 12.4618C4.12893 12.3011 3.76264 12.1029 3.42076 11.8726C3.0823 11.6433 2.76354 11.3808 2.47446 11.0925C2.18508 10.8029 1.92193 10.4852 1.69317 10.1466C1.46253 9.80582 1.26376 9.44039 1.10313 9.06122C0.939356 8.6752 0.814055 8.27138 0.72936 7.8601C0.643738 7.43878 0.599976 7.00656 0.599976 6.57374C0.599976 6.1406 0.643713 5.70746 0.729385 5.28707C0.81408 4.87576 0.939381 4.47133 1.10316 4.08594C1.26378 3.70648 1.46256 3.34075 1.69319 2.99996C1.92195 2.66106 2.18511 2.34399 2.47449 2.05407C2.76357 1.76571 3.08233 1.50391 3.42078 1.27486C3.76267 1.0436 4.12895 0.845466 4.50834 0.684425C4.89462 0.521183 5.2993 0.396063 5.7109 0.31244C6.13217 0.226317 6.56594 0.182617 6.99971 0.182617C7.43316 0.182617 7.86693 0.226317 8.28882 0.31244C8.69977 0.396088 9.10448 0.521208 9.49109 0.684425C9.87047 0.845441 10.2364 1.0436 10.5783 1.27486C10.9168 1.50391 11.2356 1.76571 11.5252 2.05407C11.8143 2.34399 12.0775 2.66106 12.3059 2.99996C12.5378 3.34075 12.7362 3.7065 12.8962 4.08594C13.06 4.47133 13.185 4.87576 13.2694 5.28707C13.3559 5.70746 13.4 6.1406 13.4 6.57374ZM4.66766 1.63715C3.14351 2.35586 2.00595 3.75827 1.65124 5.44843C1.79533 5.44968 4.07295 5.47839 6.69713 4.78215C5.75116 3.10385 4.74049 1.73423 4.66766 1.63715ZM7.14997 5.62258C4.33577 6.46388 1.6353 6.40334 1.53844 6.39962C1.53686 6.45827 1.53405 6.51506 1.53405 6.57374C1.53405 7.97583 2.06376 9.25405 2.93444 10.2205C2.93256 10.2177 4.42828 7.56797 7.3778 6.61556C7.44904 6.59185 7.52156 6.57061 7.59343 6.55003C7.45626 6.23985 7.30653 5.92903 7.14997 5.62258ZM10.6092 2.47756C9.64698 1.63028 8.3835 1.11634 6.99967 1.11634C6.55558 1.11634 6.12461 1.17002 5.71179 1.26925C5.79365 1.37911 6.82028 2.73908 7.75501 4.45292C9.81732 3.68089 10.5958 2.49752 10.6092 2.47756ZM7.96599 7.45439C7.95382 7.45842 7.94165 7.46189 7.92975 7.46625C4.70494 8.58884 3.65184 10.8512 3.64045 10.8759C4.56833 11.5964 5.73214 12.0311 6.99971 12.0311C7.7566 12.0311 8.47757 11.8773 9.13354 11.5986C9.0526 11.1218 8.73509 9.45037 7.96599 7.45439ZM10.0539 11.0999C11.2811 10.273 12.1527 8.95981 12.3959 7.43876C12.2834 7.40256 10.7542 6.91916 8.99006 7.2016C9.70697 9.16888 9.99825 10.771 10.0539 11.0999ZM8.1757 5.26618C8.30256 5.52645 8.4254 5.79135 8.53883 6.05757C8.57916 6.15308 8.61854 6.2467 8.65697 6.34031C10.5346 6.10437 12.3843 6.50132 12.4634 6.51753C12.4509 5.22373 11.9874 4.03631 11.2206 3.10668C11.2102 3.12132 10.3336 4.38613 8.1757 5.26618Z" fill="white"/>
</svg>
