<svg width="14" height="10" viewBox="0 0 14 10" fill="none" xmlns="http://www.w3.org/2000/svg">
<path fill-rule="evenodd" clip-rule="evenodd" d="M12.0009 0.457282C12.5517 0.608414 12.9854 1.05372 13.1326 1.61923C13.4001 2.64414 13.4001 4.78262 13.4001 4.78262C13.4001 4.78262 13.4001 6.92102 13.1326 7.94601C12.9854 8.51151 12.5517 8.95682 12.0009 9.10803C11.0028 9.38262 7.0001 9.38262 7.0001 9.38262C7.0001 9.38262 2.99741 9.38262 1.99923 9.10803C1.44846 8.95682 1.01472 8.51151 0.867516 7.94601C0.600098 6.92102 0.600098 4.78262 0.600098 4.78262C0.600098 4.78262 0.600098 2.64414 0.867516 1.61923C1.01472 1.05372 1.44846 0.608414 1.99923 0.457282C2.99741 0.182617 7.0001 0.182617 7.0001 0.182617C7.0001 0.182617 11.0028 0.182617 12.0009 0.457282ZM5.80011 2.98257V6.98258L9.00011 4.98265L5.80011 2.98257Z" fill="white"/>
</svg>
